<?xml version="1.0" standalone="no"?>
<!DOCTYPE svg PUBLIC "-//W3C//DTD SVG 20010904//EN"
 "http://www.w3.org/TR/2001/REC-SVG-20010904/DTD/svg10.dtd">
<svg version="1.0" xmlns="http://www.w3.org/2000/svg"
 width="180.000000pt" height="180.000000pt" viewBox="0 0 180.000000 180.000000"
 preserveAspectRatio="xMidYMid meet">
<metadata>
Created by potrace 1.14, written by Peter Selinger 2001-2017
</metadata>
<g transform="translate(0.000000,180.000000) scale(0.100000,-0.100000)"
fill="#000000" stroke="none">
<path d="M694 1724 c-38 -19 -73 -39 -77 -43 -20 -19 128 -257 206 -333 44
-43 136 -97 177 -105 98 -20 208 -1 310 53 86 45 240 162 240 181 0 4 -24 35
-53 69 l-53 61 -78 -62 c-103 -83 -192 -128 -264 -133 -90 -6 -139 28 -240
163 -4 6 -27 48 -51 95 -24 47 -45 86 -46 87 -1 2 -33 -13 -71 -33z"/>
<path d="M266 1500 c-31 -27 -57 -52 -57 -56 -1 -5 37 -54 66 -88 59 -64 119
-186 124 -247 7 -97 -55 -183 -184 -255 -11 -6 -47 -26 -80 -44 -91 -50 -88
-43 -46 -121 21 -39 42 -70 47 -70 12 1 93 38 119 54 162 101 226 156 271 233
68 117 67 239 -5 397 -27 58 -168 247 -185 247 -7 0 -38 -22 -70 -50z"/>
<path d="M1575 1150 c-140 -78 -150 -85 -226 -161 -133 -134 -152 -297 -58
-485 34 -67 162 -237 182 -241 7 -2 35 17 62 42 28 25 53 45 58 45 17 0 3 25
-66 117 -86 115 -117 181 -117 253 0 114 59 172 313 310 15 8 27 18 27 23 0
14 -70 147 -78 147 -4 0 -47 -23 -97 -50z"/>
<path d="M588 555 c-95 -32 -200 -98 -310 -194 l-27 -24 52 -63 c29 -34 55
-63 60 -63 4 -1 44 28 90 64 173 137 292 161 395 78 41 -34 112 -133 156 -220
45 -88 39 -86 119 -41 40 22 73 42 75 43 2 2 -11 30 -29 62 -17 32 -39 71 -48
88 -9 16 -34 55 -55 85 -129 181 -298 247 -478 185z"/>
</g>
</svg>
